<mxfile host="Electron" agent="Mozilla/5.0 (Windows NT 10.0; Win64; x64) AppleWebKit/537.36 (KHTML, like Gecko) draw.io/26.2.15 Chrome/134.0.6998.205 Electron/35.2.1 Safari/537.36" version="26.2.15">
  <diagram name="Page-1" id="oSlewENaS0oFDHan6Odl">
    <mxGraphModel dx="1150" dy="2555" grid="1" gridSize="10" guides="1" tooltips="1" connect="1" arrows="1" fold="1" page="1" pageScale="1" pageWidth="1100" pageHeight="1700" math="0" shadow="0">
      <root>
        <mxCell id="0" />
        <mxCell id="1" parent="0" />
        <mxCell id="0xz_DISCcn9TVZvW49MZ-1" style="rounded=0;orthogonalLoop=1;jettySize=auto;html=1;entryX=0.5;entryY=0;entryDx=0;entryDy=0;" parent="1" source="6UNTzcrF52I9kLxuiCpZ-1" target="6UNTzcrF52I9kLxuiCpZ-5" edge="1">
          <mxGeometry relative="1" as="geometry" />
        </mxCell>
        <mxCell id="6UNTzcrF52I9kLxuiCpZ-1" value="START" style="ellipse;whiteSpace=wrap;html=1;fontSize=20;" parent="1" vertex="1">
          <mxGeometry x="285" y="-1690" width="110" height="60" as="geometry" />
        </mxCell>
        <mxCell id="0xz_DISCcn9TVZvW49MZ-4" style="edgeStyle=orthogonalEdgeStyle;rounded=0;orthogonalLoop=1;jettySize=auto;html=1;entryX=0.5;entryY=0;entryDx=0;entryDy=0;" parent="1" source="6UNTzcrF52I9kLxuiCpZ-5" edge="1">
          <mxGeometry relative="1" as="geometry">
            <mxPoint x="340" y="-1480" as="targetPoint" />
          </mxGeometry>
        </mxCell>
        <mxCell id="6UNTzcrF52I9kLxuiCpZ-5" value="User Logins into EMWIS" style="rounded=0;whiteSpace=wrap;html=1;fontSize=20;" parent="1" vertex="1">
          <mxGeometry x="280" y="-1590" width="120" height="60" as="geometry" />
        </mxCell>
        <mxCell id="zw2RQC2nMTT2p0VhJ8dY-7" style="edgeStyle=orthogonalEdgeStyle;rounded=0;orthogonalLoop=1;jettySize=auto;html=1;entryX=0.5;entryY=0;entryDx=0;entryDy=0;" edge="1" parent="1" source="zw2RQC2nMTT2p0VhJ8dY-1" target="zw2RQC2nMTT2p0VhJ8dY-6">
          <mxGeometry relative="1" as="geometry">
            <Array as="points">
              <mxPoint x="340" y="-1380" />
              <mxPoint x="520" y="-1380" />
            </Array>
          </mxGeometry>
        </mxCell>
        <mxCell id="zw2RQC2nMTT2p0VhJ8dY-1" value="View Mobiles" style="rounded=0;whiteSpace=wrap;html=1;fontSize=20;" vertex="1" parent="1">
          <mxGeometry x="280" y="-1480" width="120" height="60" as="geometry" />
        </mxCell>
        <mxCell id="zw2RQC2nMTT2p0VhJ8dY-13" style="edgeStyle=orthogonalEdgeStyle;rounded=0;orthogonalLoop=1;jettySize=auto;html=1;entryX=0.5;entryY=0;entryDx=0;entryDy=0;" edge="1" parent="1" source="zw2RQC2nMTT2p0VhJ8dY-2" target="zw2RQC2nMTT2p0VhJ8dY-5">
          <mxGeometry relative="1" as="geometry" />
        </mxCell>
        <mxCell id="zw2RQC2nMTT2p0VhJ8dY-2" value="Add Mobiles to Cart" style="rounded=0;whiteSpace=wrap;html=1;fontSize=20;" vertex="1" parent="1">
          <mxGeometry x="220" y="-1325" width="120" height="60" as="geometry" />
        </mxCell>
        <mxCell id="zw2RQC2nMTT2p0VhJ8dY-15" style="edgeStyle=orthogonalEdgeStyle;rounded=0;orthogonalLoop=1;jettySize=auto;html=1;entryX=0.5;entryY=0;entryDx=0;entryDy=0;" edge="1" parent="1" source="zw2RQC2nMTT2p0VhJ8dY-5" target="zw2RQC2nMTT2p0VhJ8dY-14">
          <mxGeometry relative="1" as="geometry" />
        </mxCell>
        <mxCell id="zw2RQC2nMTT2p0VhJ8dY-5" value="View Cart" style="rounded=0;whiteSpace=wrap;html=1;fontSize=20;" vertex="1" parent="1">
          <mxGeometry x="220" y="-1210" width="120" height="60" as="geometry" />
        </mxCell>
        <mxCell id="zw2RQC2nMTT2p0VhJ8dY-8" style="edgeStyle=orthogonalEdgeStyle;rounded=0;orthogonalLoop=1;jettySize=auto;html=1;" edge="1" parent="1" source="zw2RQC2nMTT2p0VhJ8dY-6" target="zw2RQC2nMTT2p0VhJ8dY-2">
          <mxGeometry relative="1" as="geometry" />
        </mxCell>
        <mxCell id="zw2RQC2nMTT2p0VhJ8dY-45" style="edgeStyle=orthogonalEdgeStyle;rounded=0;orthogonalLoop=1;jettySize=auto;html=1;entryX=1;entryY=0.5;entryDx=0;entryDy=0;" edge="1" parent="1" source="zw2RQC2nMTT2p0VhJ8dY-6" target="zw2RQC2nMTT2p0VhJ8dY-5">
          <mxGeometry relative="1" as="geometry">
            <Array as="points">
              <mxPoint x="520" y="-1180" />
            </Array>
          </mxGeometry>
        </mxCell>
        <mxCell id="zw2RQC2nMTT2p0VhJ8dY-6" value="&lt;font style=&quot;font-size: 20px;&quot;&gt;Want to add&amp;nbsp;&lt;/font&gt;&lt;div&gt;&lt;font style=&quot;font-size: 20px;&quot;&gt;to Cart?&lt;/font&gt;&lt;/div&gt;" style="rhombus;whiteSpace=wrap;html=1;" vertex="1" parent="1">
          <mxGeometry x="440" y="-1360" width="160" height="130" as="geometry" />
        </mxCell>
        <mxCell id="zw2RQC2nMTT2p0VhJ8dY-9" value="&lt;font style=&quot;font-size: 20px;&quot;&gt;Yes&lt;/font&gt;" style="text;html=1;align=center;verticalAlign=middle;whiteSpace=wrap;rounded=0;" vertex="1" parent="1">
          <mxGeometry x="360" y="-1330" width="60" height="30" as="geometry" />
        </mxCell>
        <mxCell id="zw2RQC2nMTT2p0VhJ8dY-12" value="&lt;font style=&quot;font-size: 20px;&quot;&gt;No&lt;/font&gt;" style="text;html=1;align=center;verticalAlign=middle;whiteSpace=wrap;rounded=0;" vertex="1" parent="1">
          <mxGeometry x="460" y="-1220" width="60" height="30" as="geometry" />
        </mxCell>
        <mxCell id="zw2RQC2nMTT2p0VhJ8dY-17" style="edgeStyle=orthogonalEdgeStyle;rounded=0;orthogonalLoop=1;jettySize=auto;html=1;" edge="1" parent="1" source="zw2RQC2nMTT2p0VhJ8dY-14" target="zw2RQC2nMTT2p0VhJ8dY-16">
          <mxGeometry relative="1" as="geometry" />
        </mxCell>
        <mxCell id="zw2RQC2nMTT2p0VhJ8dY-21" style="edgeStyle=orthogonalEdgeStyle;rounded=0;orthogonalLoop=1;jettySize=auto;html=1;entryX=0.5;entryY=0;entryDx=0;entryDy=0;" edge="1" parent="1" source="zw2RQC2nMTT2p0VhJ8dY-14" target="zw2RQC2nMTT2p0VhJ8dY-20">
          <mxGeometry relative="1" as="geometry" />
        </mxCell>
        <mxCell id="zw2RQC2nMTT2p0VhJ8dY-14" value="&lt;font style=&quot;font-size: 20px;&quot;&gt;Want to remove from&lt;/font&gt;&lt;span style=&quot;font-size: 20px; background-color: transparent; color: light-dark(rgb(0, 0, 0), rgb(255, 255, 255));&quot;&gt;&amp;nbsp;Cart?&lt;/span&gt;" style="rhombus;whiteSpace=wrap;html=1;" vertex="1" parent="1">
          <mxGeometry x="180" y="-1120" width="200" height="140" as="geometry" />
        </mxCell>
        <mxCell id="zw2RQC2nMTT2p0VhJ8dY-23" style="edgeStyle=orthogonalEdgeStyle;rounded=0;orthogonalLoop=1;jettySize=auto;html=1;entryX=0;entryY=0.5;entryDx=0;entryDy=0;" edge="1" parent="1" source="zw2RQC2nMTT2p0VhJ8dY-16" target="zw2RQC2nMTT2p0VhJ8dY-20">
          <mxGeometry relative="1" as="geometry">
            <Array as="points">
              <mxPoint x="70" y="-835" />
            </Array>
          </mxGeometry>
        </mxCell>
        <mxCell id="zw2RQC2nMTT2p0VhJ8dY-16" value="View Cart" style="rounded=0;whiteSpace=wrap;html=1;fontSize=20;" vertex="1" parent="1">
          <mxGeometry x="10" y="-1080" width="120" height="60" as="geometry" />
        </mxCell>
        <mxCell id="zw2RQC2nMTT2p0VhJ8dY-18" value="&lt;font style=&quot;font-size: 20px;&quot;&gt;Yes&lt;/font&gt;" style="text;html=1;align=center;verticalAlign=middle;whiteSpace=wrap;rounded=0;" vertex="1" parent="1">
          <mxGeometry x="130" y="-1090" width="60" height="30" as="geometry" />
        </mxCell>
        <mxCell id="zw2RQC2nMTT2p0VhJ8dY-29" style="edgeStyle=orthogonalEdgeStyle;rounded=0;orthogonalLoop=1;jettySize=auto;html=1;entryX=0;entryY=0.5;entryDx=0;entryDy=0;" edge="1" parent="1" source="zw2RQC2nMTT2p0VhJ8dY-20" target="zw2RQC2nMTT2p0VhJ8dY-25">
          <mxGeometry relative="1" as="geometry" />
        </mxCell>
        <mxCell id="zw2RQC2nMTT2p0VhJ8dY-34" style="edgeStyle=orthogonalEdgeStyle;rounded=0;orthogonalLoop=1;jettySize=auto;html=1;entryX=0.5;entryY=0;entryDx=0;entryDy=0;" edge="1" parent="1" source="zw2RQC2nMTT2p0VhJ8dY-20" target="zw2RQC2nMTT2p0VhJ8dY-33">
          <mxGeometry relative="1" as="geometry" />
        </mxCell>
        <mxCell id="zw2RQC2nMTT2p0VhJ8dY-20" value="&lt;span style=&quot;font-size: 20px;&quot;&gt;Proceed to&amp;nbsp;&lt;/span&gt;&lt;div&gt;&lt;span style=&quot;font-size: 20px;&quot;&gt;Checkout?&lt;/span&gt;&lt;/div&gt;" style="rhombus;whiteSpace=wrap;html=1;" vertex="1" parent="1">
          <mxGeometry x="190" y="-900" width="180" height="130" as="geometry" />
        </mxCell>
        <mxCell id="zw2RQC2nMTT2p0VhJ8dY-22" value="&lt;font style=&quot;font-size: 20px;&quot;&gt;No&lt;/font&gt;" style="text;html=1;align=center;verticalAlign=middle;whiteSpace=wrap;rounded=0;" vertex="1" parent="1">
          <mxGeometry x="220" y="-950" width="60" height="30" as="geometry" />
        </mxCell>
        <mxCell id="zw2RQC2nMTT2p0VhJ8dY-31" style="edgeStyle=orthogonalEdgeStyle;rounded=0;orthogonalLoop=1;jettySize=auto;html=1;" edge="1" parent="1" source="zw2RQC2nMTT2p0VhJ8dY-25" target="zw2RQC2nMTT2p0VhJ8dY-26">
          <mxGeometry relative="1" as="geometry" />
        </mxCell>
        <mxCell id="zw2RQC2nMTT2p0VhJ8dY-25" value="Enter User Details" style="rounded=0;whiteSpace=wrap;html=1;fontSize=20;" vertex="1" parent="1">
          <mxGeometry x="480" y="-865" width="120" height="60" as="geometry" />
        </mxCell>
        <mxCell id="zw2RQC2nMTT2p0VhJ8dY-32" style="edgeStyle=orthogonalEdgeStyle;rounded=0;orthogonalLoop=1;jettySize=auto;html=1;entryX=0.5;entryY=1;entryDx=0;entryDy=0;" edge="1" parent="1" source="zw2RQC2nMTT2p0VhJ8dY-26" target="zw2RQC2nMTT2p0VhJ8dY-27">
          <mxGeometry relative="1" as="geometry" />
        </mxCell>
        <mxCell id="zw2RQC2nMTT2p0VhJ8dY-26" value="Confirm Order" style="rounded=0;whiteSpace=wrap;html=1;fontSize=20;" vertex="1" parent="1">
          <mxGeometry x="480" y="-980" width="120" height="60" as="geometry" />
        </mxCell>
        <mxCell id="zw2RQC2nMTT2p0VhJ8dY-38" style="edgeStyle=orthogonalEdgeStyle;rounded=0;orthogonalLoop=1;jettySize=auto;html=1;entryX=1;entryY=0.5;entryDx=0;entryDy=0;" edge="1" parent="1" source="zw2RQC2nMTT2p0VhJ8dY-27" target="zw2RQC2nMTT2p0VhJ8dY-33">
          <mxGeometry relative="1" as="geometry">
            <Array as="points">
              <mxPoint x="670" y="-1087" />
              <mxPoint x="670" y="-645" />
            </Array>
          </mxGeometry>
        </mxCell>
        <mxCell id="zw2RQC2nMTT2p0VhJ8dY-27" value="Order Confirmation Message is sent" style="rounded=0;whiteSpace=wrap;html=1;fontSize=20;" vertex="1" parent="1">
          <mxGeometry x="460" y="-1130" width="160" height="85" as="geometry" />
        </mxCell>
        <mxCell id="zw2RQC2nMTT2p0VhJ8dY-30" value="&lt;font style=&quot;font-size: 20px;&quot;&gt;Yes&lt;/font&gt;" style="text;html=1;align=center;verticalAlign=middle;whiteSpace=wrap;rounded=0;" vertex="1" parent="1">
          <mxGeometry x="390" y="-870" width="60" height="30" as="geometry" />
        </mxCell>
        <mxCell id="zw2RQC2nMTT2p0VhJ8dY-39" style="edgeStyle=orthogonalEdgeStyle;rounded=0;orthogonalLoop=1;jettySize=auto;html=1;" edge="1" parent="1" source="zw2RQC2nMTT2p0VhJ8dY-33" target="zw2RQC2nMTT2p0VhJ8dY-36">
          <mxGeometry relative="1" as="geometry" />
        </mxCell>
        <mxCell id="zw2RQC2nMTT2p0VhJ8dY-43" style="edgeStyle=orthogonalEdgeStyle;rounded=0;orthogonalLoop=1;jettySize=auto;html=1;entryX=0;entryY=0.5;entryDx=0;entryDy=0;" edge="1" parent="1" source="zw2RQC2nMTT2p0VhJ8dY-33" target="zw2RQC2nMTT2p0VhJ8dY-41">
          <mxGeometry relative="1" as="geometry">
            <Array as="points">
              <mxPoint x="100" y="-645" />
              <mxPoint x="100" y="-340" />
            </Array>
          </mxGeometry>
        </mxCell>
        <mxCell id="zw2RQC2nMTT2p0VhJ8dY-33" value="&lt;span style=&quot;font-size: 20px;&quot;&gt;Generate Invoice?&lt;/span&gt;" style="rhombus;whiteSpace=wrap;html=1;" vertex="1" parent="1">
          <mxGeometry x="185" y="-710" width="190" height="130" as="geometry" />
        </mxCell>
        <mxCell id="zw2RQC2nMTT2p0VhJ8dY-35" value="&lt;font style=&quot;font-size: 20px;&quot;&gt;No&lt;/font&gt;" style="text;html=1;align=center;verticalAlign=middle;whiteSpace=wrap;rounded=0;" vertex="1" parent="1">
          <mxGeometry x="220" y="-760" width="60" height="30" as="geometry" />
        </mxCell>
        <mxCell id="zw2RQC2nMTT2p0VhJ8dY-42" style="edgeStyle=orthogonalEdgeStyle;rounded=0;orthogonalLoop=1;jettySize=auto;html=1;entryX=0.5;entryY=0;entryDx=0;entryDy=0;" edge="1" parent="1" source="zw2RQC2nMTT2p0VhJ8dY-36" target="zw2RQC2nMTT2p0VhJ8dY-41">
          <mxGeometry relative="1" as="geometry" />
        </mxCell>
        <mxCell id="zw2RQC2nMTT2p0VhJ8dY-36" value="Download Invoice" style="rounded=0;whiteSpace=wrap;html=1;fontSize=20;" vertex="1" parent="1">
          <mxGeometry x="220" y="-510" width="120" height="60" as="geometry" />
        </mxCell>
        <mxCell id="zw2RQC2nMTT2p0VhJ8dY-40" value="&lt;font style=&quot;font-size: 20px;&quot;&gt;Yes&lt;/font&gt;" style="text;html=1;align=center;verticalAlign=middle;whiteSpace=wrap;rounded=0;" vertex="1" parent="1">
          <mxGeometry x="220" y="-570" width="60" height="30" as="geometry" />
        </mxCell>
        <mxCell id="zw2RQC2nMTT2p0VhJ8dY-41" value="FINISH" style="ellipse;whiteSpace=wrap;html=1;fontSize=20;" vertex="1" parent="1">
          <mxGeometry x="225" y="-370" width="110" height="60" as="geometry" />
        </mxCell>
        <mxCell id="zw2RQC2nMTT2p0VhJ8dY-44" value="&lt;font style=&quot;font-size: 20px;&quot;&gt;No&lt;/font&gt;" style="text;html=1;align=center;verticalAlign=middle;whiteSpace=wrap;rounded=0;" vertex="1" parent="1">
          <mxGeometry x="120" y="-680" width="60" height="30" as="geometry" />
        </mxCell>
      </root>
    </mxGraphModel>
  </diagram>
</mxfile>
